<mxfile host="app.diagrams.net" modified="2023-10-24T07:12:22.010Z" agent="Mozilla/5.0 (Windows NT 10.0; Win64; x64) AppleWebKit/537.36 (KHTML, like Gecko) Chrome/117.0.0.0 Safari/537.36 OPR/103.0.0.0" version="22.0.6" etag="lW85zi5O2HFnZIxJKpVO" type="github">
  <diagram name="Page-1" id="bYcUzKRCuM1OR8TnrbX-">
    <mxGraphModel>
      <root>
        <mxCell id="0" />
        <mxCell id="1" parent="0" />
      </root>
    </mxGraphModel>
  </diagram>
</mxfile>
